<?xml version="1.0" encoding="UTF-8" standalone="no"?>
<!-- Created with Inkscape (http://www.inkscape.org/) -->

<svg
   version="1.1"
   id="svg2"
   xml:space="preserve"
   width="1056"
   height="816"
   viewBox="0 0 1056 816"
   sodipodi:docname="saw_graphic_only.svg"
   inkscape:version="1.2 (dc2aedaf03, 2022-05-15)"
   xmlns:inkscape="http://www.inkscape.org/namespaces/inkscape"
   xmlns:sodipodi="http://sodipodi.sourceforge.net/DTD/sodipodi-0.dtd"
   xmlns="http://www.w3.org/2000/svg"
   xmlns:svg="http://www.w3.org/2000/svg"
   xmlns:rdf="http://www.w3.org/1999/02/22-rdf-syntax-ns#"
   xmlns:cc="http://creativecommons.org/ns#"
   xmlns:dc="http://purl.org/dc/elements/1.1/"><metadata
     id="metadata8"><rdf:RDF><cc:Work
         rdf:about=""><dc:format>image/svg+xml</dc:format><dc:type
           rdf:resource="http://purl.org/dc/dcmitype/StillImage" /></cc:Work></rdf:RDF></metadata><defs
     id="defs6"><clipPath
       clipPathUnits="userSpaceOnUse"
       id="clipPath18"><path
         d="M 0,612 H 792 V 0 H 0 Z"
         id="path16"
         inkscape:connector-curvature="0" /></clipPath><clipPath
       clipPathUnits="userSpaceOnUse"
       id="clipPath50"><path
         d="M 0,612 H 792 V 0 H 0 Z"
         id="path48"
         inkscape:connector-curvature="0" /></clipPath></defs><sodipodi:namedview
     pagecolor="#ffffff"
     bordercolor="#666666"
     borderopacity="1"
     objecttolerance="10"
     gridtolerance="10"
     guidetolerance="10"
     inkscape:pageopacity="0"
     inkscape:pageshadow="2"
     inkscape:window-width="1920"
     inkscape:window-height="1016"
     id="namedview4"
     showgrid="false"
     inkscape:zoom="0.81802549"
     inkscape:cx="386.90726"
     inkscape:cy="474.92408"
     inkscape:window-x="1920"
     inkscape:window-y="27"
     inkscape:window-maximized="1"
     inkscape:current-layer="g14"
     inkscape:showpageshadow="2"
     inkscape:pagecheckerboard="0"
     inkscape:deskcolor="#d1d1d1" /><g
     id="g10"
     inkscape:groupmode="layer"
     inkscape:label="Untitled1"
     transform="matrix(1.3333333,0,0,-1.3333333,0,816)"><g
       id="g12"
       transform="translate(257.91921,-2.1461923)"
       inkscape:export-xdpi="96"
       inkscape:export-ydpi="96"><g
         id="g14"
         clip-path="url(#clipPath18)"><g
           id="g20"
           transform="translate(212.0213,319.4512)"
           style="stroke:#ffffff;stroke-opacity:1;stroke-width:0.99975002;stroke-miterlimit:4;stroke-dasharray:none"><path
             d="m 0,0 -35.505,51.389 c -1.246,1.811 -2.761,3.326 -4.545,4.544 -1.783,1.217 -4.006,1.826 -6.667,1.826 -2.776,0 -5.069,-0.652 -6.881,-1.953 -1.812,-1.304 -3.312,-2.776 -4.501,-4.417 L -72.247,31.437 c -3.489,1.803 -8.143,2.709 -13.97,2.709 h -30.918 c -2.039,0 -3.554,0.297 -4.544,0.892 -0.992,0.594 -1.487,1.627 -1.487,3.1 0,1.472 0.495,2.491 1.487,3.058 0.99,0.565 2.505,0.849 4.544,0.849 h 39.412 l 11.297,14.78 h -49.35 c -4.304,0 -7.999,-0.425 -11.085,-1.274 -3.087,-0.85 -5.606,-2.039 -7.559,-3.568 -1.954,-1.529 -3.398,-3.384 -4.333,-5.563 -0.934,-2.181 -1.401,-4.602 -1.401,-7.263 0,-2.435 0.425,-4.658 1.274,-6.667 0.85,-2.011 2.152,-3.725 3.907,-5.139 1.755,-1.417 3.963,-2.521 6.626,-3.313 2.661,-0.794 5.831,-1.189 9.513,-1.189 h 30.918 c 2.095,0 3.624,-0.312 4.587,-0.935 0.962,-0.623 1.444,-1.671 1.444,-3.142 0,-0.385 -0.034,-0.739 -0.1,-1.068 l -1.616,-2.278 c -0.969,-0.543 -2.404,-0.817 -4.315,-0.817 h -42.979 L -142.192,0 h 47.653 5.264 c 4.303,0 7.998,0.425 11.085,1.274 3.086,0.849 5.619,2.066 7.602,3.652 0.316,0.253 0.613,0.518 0.902,0.79 1.373,1.291 2.436,2.796 3.191,4.512 l 19.438,27.485 10.193,-15.034 c 0.962,-1.359 1.967,-2.818 3.015,-4.375 C -32.802,16.746 -23.212,1.019 -22.418,0 -23.777,0.113 0,0 0,0"
             style="fill:#231f20;fill-opacity:1;fill-rule:nonzero;stroke:#ffffff;stroke-opacity:1;stroke-width:0.99975002;stroke-miterlimit:4;stroke-dasharray:none"
             id="path22"
             inkscape:connector-curvature="0" /></g><g
           id="g24"
           transform="translate(180.8109,239.0822)"
           style="stroke:#ffffff;stroke-opacity:1;stroke-width:0.99975002;stroke-miterlimit:4;stroke-dasharray:none"><path
             d="m 0,0 c -2.638,0 -4.761,0.551 -6.49,1.684 -1.853,1.213 -3.457,2.925 -4.769,5.09 l -13.058,21.887 c -1.792,3.012 -3.344,5.668 -4.613,7.891 -1.309,2.287 -2.494,4.342 -3.554,6.163 -1.031,1.767 -1.936,3.387 -2.69,4.82 l -2.26,4.29 c -0.518,0.982 -1.584,1.602 -2.747,1.602 -0.023,0 -0.046,-10e-4 -0.069,-10e-4 -1.189,-0.025 -2.256,-0.694 -2.736,-1.718 -0.642,-1.366 -1.341,-2.77 -2.08,-4.172 -0.782,-1.482 -1.675,-3.117 -2.652,-4.861 -0.999,-1.781 -2.164,-3.816 -3.459,-6.046 -1.236,-2.126 -2.749,-4.696 -4.627,-7.858 L -68.873,6.751 C -70.11,4.664 -71.679,2.972 -73.537,1.721 -75.259,0.563 -77.412,0 -80.118,0 c -2.539,0 -4.769,0.675 -6.817,2.063 -1.99,1.349 -3.473,3.547 -4.409,6.533 l -19.638,64.453 h 18.863 l 7.086,-24.868 c 1.301,-4.405 2.381,-8.273 3.218,-11.522 0.833,-3.242 1.583,-6.473 2.229,-9.605 0.253,-1.232 1.327,-2.167 2.652,-2.313 0.121,-0.013 0.24,-0.02 0.359,-0.02 1.192,0 2.291,0.654 2.792,1.693 1.275,2.65 2.799,5.637 4.527,8.878 1.737,3.258 4.046,7.428 6.865,12.394 l 10.995,19.476 c 0.952,1.738 1.875,3.078 2.76,4.015 0.823,0.871 1.684,1.546 2.559,2.005 0.87,0.455 1.757,0.745 2.711,0.887 1.142,0.169 2.379,0.254 3.673,0.254 1.374,0 2.653,-0.085 3.8,-0.255 0.949,-0.141 1.836,-0.431 2.708,-0.888 0.889,-0.466 1.785,-1.155 2.658,-2.044 0.904,-0.922 1.835,-2.25 2.765,-3.945 l 10.877,-19.597 c 1.565,-2.741 2.916,-5.13 4.032,-7.132 1.113,-2.001 2.134,-3.862 3.035,-5.53 0.883,-1.639 1.67,-3.152 2.339,-4.496 l 2.015,-4.054 c 0.508,-1.021 1.597,-1.661 2.776,-1.661 0.123,0 0.246,0.007 0.37,0.021 1.317,0.15 2.381,1.078 2.638,2.3 0.636,3.02 1.424,6.24 2.342,9.572 0.884,3.214 1.942,6.999 3.232,11.573 l 7.084,24.862 H 31.21 L 11.224,8.588 C 10.275,5.567 8.832,3.429 6.816,2.063 4.769,0.675 2.539,0 0,0"
             style="fill:#ed1c24;fill-opacity:1;fill-rule:nonzero;stroke:#ffffff;stroke-opacity:1;stroke-width:0.99975002;stroke-miterlimit:4;stroke-dasharray:none"
             id="path26"
             inkscape:connector-curvature="0" /></g><g
           id="g28"
           transform="translate(32.2221,232.0897)"
           style="stroke:#ffffff;stroke-opacity:1;stroke-width:0.99975002;stroke-miterlimit:4;stroke-dasharray:none"><path
             d="M 0,0 V 152.113 H 24.356 V 143.08 H 11.725 V 9.033 H 24.356 V 0 Z"
             style="fill:#ed1c24;fill-opacity:1;fill-rule:nonzero;stroke:#ffffff;stroke-opacity:1;stroke-width:0.99975002;stroke-miterlimit:4;stroke-dasharray:none"
             id="path30"
             inkscape:connector-curvature="0" /></g><g
           id="g32"
           transform="translate(219.5835,232.0897)"
           style="stroke:#ffffff;stroke-opacity:1"><path
             d="M 0,0 V 9.033 H 12.631 V 143.08 H 0 v 9.033 H 24.356 V 0 Z"
             style="fill:#231f20;fill-opacity:1;fill-rule:nonzero;stroke:#ffffff;stroke-opacity:1"
             id="path34"
             inkscape:connector-curvature="0" /></g></g></g></g></svg>
